<svg id="图层_1" data-name="图层 1" xmlns="http://www.w3.org/2000/svg" viewBox="0 0 26 26"><defs><style>.cls-1{fill:#fa4b4a;}.cls-2,.cls-3{fill:#2b435c;}.cls-3{opacity:0;}</style></defs><title>GRE</title><circle class="cls-1" cx="22" cy="4.95" r="3"/><path class="cls-2" d="M22,8.45A3.5,3.5,0,0,1,18.5,5a3.93,3.93,0,0,1,.06-.59A14.16,14.16,0,0,0,13,3.25c-6.62,0-12,4.48-12,9.85A9.21,9.21,0,0,0,4.4,20L4,24.05l4.22-1.92A12.68,12.68,0,0,0,13,23c6.62,0,12-4.4,12-9.85a8.51,8.51,0,0,0-1.62-4.94A3.35,3.35,0,0,1,22,8.45ZM7.06,15.08a1.73,1.73,0,1,1,1.66-1.73A1.64,1.64,0,0,1,7.06,15.08Zm6,0a1.73,1.73,0,1,1,1.66-1.73A1.69,1.69,0,0,1,13.05,15.08Zm5.89,0a1.73,1.73,0,1,1,1.67-1.73A1.69,1.69,0,0,1,18.94,15.08Z"/><rect class="cls-3" width="26" height="26"/></svg>