<?xml version="1.0" encoding="UTF-8"?>
<svg width="36px" height="36px" viewBox="0 0 36 36" version="1.1" xmlns="http://www.w3.org/2000/svg" xmlns:xlink="http://www.w3.org/1999/xlink">
    <!-- Generator: Sketch 52.3 (67297) - http://www.bohemiancoding.com/sketch -->
    <title>yanshi copy 2</title>
    <desc>Created with Sketch.</desc>
    <g id="Page-1" stroke="none" stroke-width="1" fill="none" fill-rule="evenodd">
        <g id="yanshi-copy-2" fill="#65C3DF" fill-rule="nonzero">
            <path d="M0.0330275229,0.0330275229 L0.0330275229,2.27361468 L2.27361468,2.27361468 L2.27361468,23.6014679 C2.27361468,26.2648073 4.11258716,28.1037798 6.77592661,28.1037798 L13.5188257,28.1037798 L9.01651376,35.9669725 L12.3985321,35.9458349 L16.8797064,28.1037798 L19.1202936,28.1037798 L23.6014679,35.9458349 L26.9834862,35.9669725 L22.4811743,28.1037798 L29.2240734,28.1037798 C31.8662752,28.1037798 33.7263853,26.2648073 33.7263853,23.6014679 L33.7263853,2.27361468 L35.9669725,2.27361468 L35.9669725,0.0330275229 L0.0330275229,0.0330275229 Z M12.3562569,22.5657248 L10.157945,22.5657248 L10.157945,14.6391193 L12.3562569,14.6391193 L12.3562569,22.5657248 Z M19.099156,22.5023119 L16.900844,22.5023119 L16.900844,6.6279633 L19.099156,6.6279633 L19.099156,22.5023119 Z M25.842055,22.5657248 L23.6437431,22.5657248 L23.6437431,10.1368073 L25.842055,10.1368073 L25.842055,22.5657248 Z" id="形状"></path>
        </g>
    </g>
</svg>