<?xml version="1.0" encoding="UTF-8"?>
<svg width="26px" height="26px" viewBox="0 0 26 26" version="1.1" xmlns="http://www.w3.org/2000/svg" xmlns:xlink="http://www.w3.org/1999/xlink">
    <!-- Generator: Sketch 52.3 (67297) - http://www.bohemiancoding.com/sketch -->
    <title>常用链接</title>
    <desc>Created with Sketch.</desc>
    <g id="Page-1" stroke="none" stroke-width="1" fill="none" fill-rule="evenodd">
        <g id="分组-10-copy-2" fill="#29415A" fill-rule="nonzero">
            <g id="changyonglianjie-2-copy">
                <path d="M25.5450661,6.71291963 L19.2606307,0.428484232 C18.6893184,-0.142828077 17.7371312,-0.142828077 17.1658189,0.428484232 L10.9025432,6.71291963 C10.3312309,7.28423194 10.3312309,8.23641913 10.9025432,8.80773143 L11.9393693,9.84455748 L18.2238047,3.58128179 L22.4134283,7.77090539 L16.1289929,14.0341811 L17.1658189,15.0710071 C17.7371312,15.6423194 18.6893184,15.6423194 19.2606307,15.0710071 L25.5450661,8.78657172 C26.1163784,8.21525941 26.1163784,7.28423194 25.5450661,6.71291963 Z M14.0341811,16.1289929 L7.74974568,22.4134283 L3.58128179,18.2238047 L9.86571719,11.9393693 L8.82889115,10.9025432 C8.25757884,10.3312309 7.30539166,10.3312309 6.73407935,10.9025432 L0.428484232,17.1658189 C-0.142828077,17.7371312 -0.142828077,18.6893184 0.428484232,19.2606307 L6.71291963,25.5450661 C7.28423194,26.1163784 8.23641913,26.1163784 8.80773143,25.5450661 L15.0710071,19.2606307 C15.6423194,18.6893184 15.6423194,17.7371312 15.0710071,17.1658189 L14.0341811,16.1289929 Z M8.80773143,17.1658189 C9.37904374,17.7371312 10.3312309,17.7371312 10.9025432,17.1658189 L17.1869786,10.8813835 C17.7582909,10.3100712 17.7582909,9.37904374 17.1869786,8.78657172 C16.6156663,8.21525941 15.6634791,8.21525941 15.0921668,8.78657172 L8.80773143,15.0710071 C8.21525941,15.6634791 8.21525941,16.5945066 8.80773143,17.1658189 Z" id="形状"></path>
            </g>
        </g>
    </g>
</svg>