<?xml version="1.0" encoding="UTF-8"?>
<svg width="26px" height="26px" viewBox="0 0 26 26" version="1.1" xmlns="http://www.w3.org/2000/svg" xmlns:xlink="http://www.w3.org/1999/xlink">
    <!-- Generator: Sketch 52.3 (67297) - http://www.bohemiancoding.com/sketch -->
    <title>知识库</title>
    <desc>Created with Sketch.</desc>
    <g id="Page-1" stroke="none" stroke-width="1" fill="none" fill-rule="evenodd">
        <g id="分组-9-copy-2" fill="#29415A" fill-rule="nonzero">
            <g id="zhishiku-2-copy">
                <path d="M0.703322034,19.0664988 C0.542159806,18.9859177 0.429346247,18.8247554 0.380997579,18.647477 C0.33264891,18.4701985 0.348765133,18.2768039 0.44546247,18.1156416 C0.574392252,17.8900145 0.80001937,17.7610847 1.04176271,17.7610847 C1.15457627,17.7610847 1.26738983,17.7933172 1.38020339,17.8416659 L12.3070024,23.9013656 L24.1363099,20.0334722 C24.6197966,19.0503826 24.7326102,18.067293 24.4908668,17.1325521 C24.361937,16.6168329 24.1524262,16.2461598 24.0396126,16.0527651 L12.0974915,20.1301695 L0.687205811,13.7481453 C0.348765133,13.5547506 0.235951574,13.1357288 0.429346247,12.8134044 C0.558276029,12.5877772 0.783903148,12.4588475 1.02564649,12.4588475 C1.13846005,12.4588475 1.26738983,12.4910799 1.36408717,12.5394286 L12.2264213,18.6313608 L24.1201937,14.5700726 C24.6359128,13.7159128 24.7164939,12.7972881 24.361937,11.846431 C24.1846586,11.3629443 23.926799,10.9600387 23.7495206,10.7344116 L12.0813753,14.9407458 L0.703322034,8.57483777 C0.542159806,8.47814044 0.429346247,8.33309443 0.380997579,8.15581598 C0.33264891,7.97853753 0.348765133,7.78514286 0.44546247,7.62398063 C0.574392252,7.39835351 0.80001937,7.26942373 1.04176271,7.26942373 C1.15457627,7.26942373 1.26738983,7.30165617 1.38020339,7.35000484 L12.2425375,13.4097046 L23.9106828,9.20337046 C24.5553317,8.1719322 24.7164939,7.17272639 24.4102857,6.20575303 C24.3135884,5.89954479 24.1685424,5.64168523 24.0557288,5.44829056 L12.129724,9.97694915 L0.0103244552,3.40153027 L13.3545569,0.0171234867 L24.5714479,3.94948184 L24.6842615,4.04617918 C24.7487264,4.11064407 25.3772591,4.73917676 25.731816,5.78673123 C26.0541404,6.7537046 26.1830702,8.28474576 25.0227022,10.0575303 C25.2322131,10.3637385 25.4900726,10.7827603 25.6834673,11.3145956 C26.2153027,12.716707 26.0702567,14.1188184 25.2644455,15.3758838 C25.441724,15.6659758 25.6834673,16.1333462 25.8285133,16.7457627 C26.0702567,17.6966199 26.166954,19.1954286 25.2322131,20.9359806 L25.1032833,21.177724 L12.1619564,25.4001743 L0.703322034,19.0664988 Z M12.2103051,8.49425666 L22.3474092,4.64247942 L20.0427893,3.83666828 L9.97015012,7.26942373 L12.2103051,8.49425666 Z" id="形状"></path>
            </g>
        </g>
    </g>
</svg>