<?xml version="1.0" encoding="UTF-8"?>
<svg width="26px" height="26px" viewBox="0 0 26 26" version="1.1" xmlns="http://www.w3.org/2000/svg" xmlns:xlink="http://www.w3.org/1999/xlink">
    <!-- Generator: Sketch 52.3 (67297) - http://www.bohemiancoding.com/sketch -->
    <title>QA</title>
    <desc>Created with Sketch.</desc>
    <g id="Page-1" stroke="none" stroke-width="1" fill="none" fill-rule="evenodd">
        <g id="分组-6-copy-2" fill="#EF5B6D" fill-rule="nonzero">
            <g id="qa-copy">
                <path d="M21.1197413,17.0895277 L21.9559055,18.761883 C22.124692,19.0994559 22.5351663,19.2362895 22.8727392,19.0675031 C23.2103121,18.8987166 23.3471458,18.4882423 23.1783593,18.1506694 L19.7615216,11.3169938 C19.5096899,10.8133306 18.7909261,10.8133306 18.5390678,11.3169938 L15.12223,18.1506694 C14.9534435,18.4882423 15.0902772,18.8987166 15.4278501,19.0675031 C15.765423,19.2362895 16.1758973,19.0994559 16.3446838,18.761883 L17.180848,17.0895277 L21.1197413,17.0895277 Z M20.4363737,15.7227926 L17.8642156,15.7227926 L19.1502813,13.1506345 L20.436347,15.7227926 L20.4363737,15.7227926 Z M20.5170431,8.20574949 L23.9378316,8.20574949 C25.0660021,8.20574949 25.9839836,9.12183573 25.9839836,10.2519014 L25.9839836,19.8269754 C25.9839836,20.9551458 25.0689918,21.8731273 23.9402875,21.8731273 L23.2505133,21.8731273 L23.2505133,25.2899651 L18.4669405,21.8731273 L14.3645996,21.8731273 C13.821197,21.8749697 13.299493,21.6600436 12.9150768,21.2759681 C12.5306606,20.8918926 12.3152719,20.3703794 12.3166324,19.8269754 L12.3166324,17.772922 L7.73996509,17.772922 L2.74948665,21.0999076 L2.74948665,17.772922 L2.0661191,17.772922 C0.929646817,17.772922 0.0160164271,16.8545934 0.0160164271,15.7194292 L0.0160164271,2.05883162 C0.0160164271,0.931008214 0.941285421,0.00533880903 2.07546201,0.00533880903 L18.4575708,0.00533880903 C19.5933758,0.00533880903 20.5170164,0.914778234 20.5170164,2.04284189 L20.5170164,8.20574949 L20.5170431,8.20574949 Z M19.150308,8.20574949 L19.150308,2.04284189 C19.150308,1.67438398 18.8432731,1.37207392 18.4575975,1.37207392 L2.07548871,1.37207392 C1.69624641,1.37207392 1.38277823,1.68567556 1.38277823,2.05883162 L1.38277823,15.7194292 C1.38277823,16.1013142 1.68607598,16.4061869 2.06614579,16.4061869 L4.11624846,16.4061869 L4.11624846,18.5461417 L7.3261807,16.4061869 L12.3166591,16.4061869 L12.3166591,10.2519281 C12.3166591,9.1237577 13.2327454,8.20577618 14.3628111,8.20577618 L19.1503347,8.20577618 L19.150308,8.20574949 Z M10.1918665,9.2147577 L10.7497454,9.77263655 C11.0166057,10.0394969 11.0166057,10.4721807 10.7497454,10.7390678 C10.482885,11.0059548 10.0502012,11.0059281 9.78331417,10.7390678 L9.22543532,10.1811889 C8.55517454,10.6585051 7.73521355,10.9392197 6.84969199,10.9392197 C4.58520945,10.9392197 2.74948665,9.10349692 2.74948665,6.83901437 C2.74948665,4.57453183 4.58520945,2.73880903 6.84969199,2.73880903 C9.11417454,2.73880903 10.9498973,4.57453183 10.9498973,6.83901437 C10.9498973,7.72453593 10.6691828,8.54449692 10.1918665,9.2147577 Z M9.20469405,8.22758522 C9.445154,7.8206345 9.58316222,7.34593429 9.58316222,6.83901437 C9.58316222,5.32935934 8.35934702,4.10554415 6.84969199,4.10554415 C5.34003696,4.10554415 4.11622177,5.32935934 4.11622177,6.83901437 C4.11622177,8.3486694 5.34003696,9.5724846 6.84969199,9.5724846 C7.35661191,9.5724846 7.83131211,9.43450308 8.23826283,9.19401643 L7.04984394,8.00559754 C6.78298357,7.73873717 6.78298357,7.30605339 7.04984394,7.03916632 C7.31670431,6.77227926 7.74938809,6.77230595 8.01627515,7.03916632 L9.20469405,8.22758522 Z" id="形状"></path>
            </g>
        </g>
    </g>
</svg>