<?xml version="1.0" encoding="UTF-8"?>
<svg width="26px" height="26px" viewBox="0 0 26 26" version="1.1" xmlns="http://www.w3.org/2000/svg" xmlns:xlink="http://www.w3.org/1999/xlink">
    <!-- Generator: Sketch 52.3 (67297) - http://www.bohemiancoding.com/sketch -->
    <title>联系我们</title>
    <desc>Created with Sketch.</desc>
    <g id="Page-1" stroke="none" stroke-width="1" fill="none" fill-rule="evenodd">
        <g id="分组-7-copy-2" fill="#EF5B6D">
            <g id="lianxiwomen-copy">
                <path d="M24.2969763,11.1635868 C24.2212361,4.98579981 19.1959031,0 12.9999873,0 C6.80407147,0 1.77873851,4.98577442 1.70299835,11.1635868 C0.665817699,11.9922344 0,13.2650652 0,14.6956478 C0,17.1927371 2.02459568,19.2173836 4.52173582,19.2173836 C5.61147498,19.2173836 6.61077285,18.8313195 7.39133068,18.189826 L5.26105932,10.2394705 C5.01969627,10.1999119 4.77381371,10.1739119 4.52173582,10.1739119 C4.35555433,10.1739119 4.19221662,10.1840682 4.03055466,10.2015877 C4.57543694,5.72847488 8.37932971,2.26085521 12.9999873,2.26085521 C17.6200609,2.26085521 21.4245377,5.72844949 21.96942,10.2015877 C21.8083166,10.1840682 21.6444203,10.1739119 21.4782388,10.1739119 C21.2261609,10.1739119 20.9797197,10.1999119 20.7383567,10.2394705 L18.6086439,18.1858397 C19.2111629,18.6804232 19.9436817,19.0223838 20.7474211,19.1535008 C19.6808382,20.2992009 18.32432,21.1724598 16.7897883,21.6444203 L16.6026596,21.8314982 C16.1239452,20.95146 15.2026219,20.3477985 14.1304276,20.3477985 C12.5692866,20.3477985 11.3043269,21.6127582 11.3043268,23.1738993 C11.3043268,24.7350403 12.5692866,25.9999746 14.1304276,25.9999746 C15.4117643,25.9999746 16.4805816,25.1419754 16.8276457,23.9736778 C19.9465001,23.2089129 22.5594975,21.1560828 24.0601582,18.4040211 C25.2318328,17.5873071 25.9999746,16.231906 25.9999746,14.6956478 C25.9999746,13.2656492 25.3335729,11.992209 24.2969763,11.1635868 Z" id="路径"></path>
            </g>
        </g>
    </g>
</svg>