<?xml version="1.0" encoding="UTF-8"?>
<svg width="14px" height="14px" viewBox="0 0 14 14" version="1.1" xmlns="http://www.w3.org/2000/svg" xmlns:xlink="http://www.w3.org/1999/xlink">
    <!-- Generator: Sketch 52.3 (67297) - http://www.bohemiancoding.com/sketch -->
    <title>sousuo copy</title>
    <desc>Created with Sketch.</desc>
    <g id="Page-1" stroke="none" stroke-width="1" fill="none" fill-rule="evenodd">
        <g id="sousuo-copy" transform="translate(-1.000000, -1.000000)" fill="#29415A" fill-rule="nonzero">
            <path d="M14.9734967,14.2719376 L12.122049,11.42049 C13.0621381,10.3182628 13.6311804,8.89175947 13.6311804,7.32962138 C13.6311804,3.84209354 10.803118,1.01403118 7.3155902,1.01403118 C3.82806236,1.01403118 1,3.84053452 1,7.32962138 C1,10.8171492 3.82806236,13.6452116 7.3155902,13.6452116 C8.87772829,13.6452116 10.3042316,13.0746102 11.4064588,12.1360802 L14.2579065,14.9875278 L14.9734967,14.2719376 Z M2.01180401,7.32962138 C2.01180401,4.40489978 4.39242762,2.02427617 7.31714922,2.02427617 C10.2418708,2.02427617 12.6209354,4.40334076 12.6209354,7.32962138 C12.6209354,10.254343 10.2403118,12.6349666 7.3155902,12.6349666 C4.3908686,12.6349666 2.01180401,10.254343 2.01180401,7.32962138 Z" id="形状"></path>
        </g>
    </g>
</svg>