<?xml version="1.0" encoding="UTF-8"?>
<svg width="36px" height="36px" viewBox="0 0 36 36" version="1.1" xmlns="http://www.w3.org/2000/svg" xmlns:xlink="http://www.w3.org/1999/xlink">
    <!-- Generator: Sketch 52.3 (67297) - http://www.bohemiancoding.com/sketch -->
    <title>工程管理</title>
    <desc>Created with Sketch.</desc>
    <g id="Page-1" stroke="none" stroke-width="1" fill="none" fill-rule="evenodd">
        <g id="gongchengguanli-copy" transform="translate(0.000000, 2.000000)" fill="#29415A">
            <path d="M17.64,14.85 C16.146,14.85 14.94,16.056 14.94,17.496 C14.94,18.936 16.2,20.142 17.64,20.142 C19.08,20.142 20.34,18.882 20.34,17.496 C20.34,16.056 19.08,14.85 17.64,14.85 Z" id="路径"></path>
            <path d="M34.2,4.194 L14.994,4.194 L14.994,4.014 L10.98,0.414 C10.62,0.108 10.206,0 9.774,0 L1.206,0 C0.54,0 0,0.54 0,1.206 L0,29.412 C0,30.438 0.774,31.212 1.8,31.212 L34.2,31.212 C35.226,31.212 36,30.438 36,29.412 L36,6.012 C36,4.986 35.226,4.194 34.2,4.194 Z M23.706,22.536 C23.58,22.716 23.4,22.77 23.22,22.716 L21.294,21.942 C20.88,22.248 20.448,22.482 19.98,22.716 L19.674,24.696 C19.674,24.822 19.494,25.002 19.314,25.002 L16.254,25.002 C16.074,25.002 15.894,24.876 15.894,24.696 L15.588,22.716 C15.102,22.482 14.634,22.23 14.274,21.942 L12.348,22.716 C12.114,22.842 11.934,22.716 11.862,22.662 L10.296,20.016 C10.17,19.836 10.17,19.71 10.35,19.53 L11.916,18.324 C11.862,18.09 11.862,17.838 11.862,17.55 C11.862,17.244 11.916,17.01 11.916,16.776 L10.296,15.57 C10.116,15.39 10.062,15.156 10.116,15.084 L11.7,12.456 C11.88,12.276 12.006,12.222 12.24,12.276 L14.094,13.05 C14.58,12.744 14.94,12.456 15.408,12.276 L15.714,10.242 C15.714,10.116 15.894,9.936 16.074,9.936 L19.134,9.936 C19.26,9.936 19.494,10.062 19.44,10.296 L19.746,12.276 C20.232,12.51 20.7,12.762 21.06,13.05 L22.986,12.276 C23.22,12.15 23.4,12.276 23.472,12.33 L25.038,14.904 C25.164,15.084 25.164,15.21 24.984,15.39 L23.364,16.65 C23.418,16.884 23.418,17.136 23.418,17.424 C23.418,17.73 23.364,17.964 23.364,18.198 L25.11,19.404 C25.236,19.53 25.236,19.71 25.29,19.89 L23.706,22.536 Z" id="形状" fill-rule="nonzero"></path>
        </g>
    </g>
</svg>