<?xml version="1.0" encoding="UTF-8"?>
<svg width="36px" height="36px" viewBox="0 0 36 36" version="1.1" xmlns="http://www.w3.org/2000/svg" xmlns:xlink="http://www.w3.org/1999/xlink">
    <!-- Generator: Sketch 52.3 (67297) - http://www.bohemiancoding.com/sketch -->
    <title>采购管理</title>
    <desc>Created with Sketch.</desc>
    <g id="Page-1" stroke="none" stroke-width="1" fill="none" fill-rule="evenodd">
        <g id="caigou-copy-3" transform="translate(0.000000, 1.000000)" fill="#29415A" fill-rule="nonzero">
            <path d="M31.9733217,0.0135162685 L4.02667832,0.0135162685 C1.82408384,0.0135162685 0.034630349,1.80552459 0.034630349,4.00593511 L0.034630349,30.0613026 C0.034630349,32.2645564 1.82408384,34.053639 4.02667832,34.053639 L31.9733217,34.053639 C34.1764519,34.053639 35.9653697,32.2645564 35.9653697,30.0613026 L35.9653697,4.00593511 C35.9653697,1.80552459 34.1764519,0.0135162685 31.9733217,0.0135162685 Z M28.8320738,9.13743797 C27.9678402,14.3342951 23.4400606,18.3085828 17.9999588,18.3085828 C12.5610108,18.3085828 8.03673374,14.3353664 7.17278859,9.13941592 C6.49332701,8.82039161 6.02290836,8.12976298 6.02290832,7.33179016 C6.02290832,6.22822655 6.91635765,5.33551893 8.01897354,5.33551893 C9.12245477,5.33551893 10.0153272,6.22822651 10.0153272,7.33179016 C10.0153272,8.00482345 9.68060303,8.6012942 9.16831808,8.96317373 C9.93773444,13.1388399 13.6035469,16.3123116 18,16.3123116 C22.3961646,16.3123116 26.0646555,13.1400761 26.835473,8.96572856 C26.3213749,8.60405505 25.9843844,8.00647172 25.9843844,7.33179016 C25.9843844,6.22822655 26.8781222,5.33551893 27.9810265,5.33551893 C29.0845077,5.33551893 29.9772977,6.22822651 29.9772977,7.33179016 C29.9772565,8.12807348 29.5093103,8.81746595 28.8320738,9.13743797 Z" id="形状"></path>
        </g>
    </g>
</svg>