<?xml version="1.0" encoding="UTF-8"?>
<svg width="36px" height="36px" viewBox="0 0 36 36" version="1.1" xmlns="http://www.w3.org/2000/svg" xmlns:xlink="http://www.w3.org/1999/xlink">
    <!-- Generator: Sketch 52.3 (67297) - http://www.bohemiancoding.com/sketch -->
    <title>销售管理</title>
    <desc>Created with Sketch.</desc>
    <g id="Page-1" stroke="none" stroke-width="1" fill="none" fill-rule="evenodd">
        <g id="xiaoshouguanli-copy" transform="translate(2.000000, 0.000000)" fill="#29415A" fill-rule="nonzero">
            <path d="M31.563074,0.0349060861 L15.7104781,0.0349060861 L0.946563006,12.5231274 C-0.289616372,13.6609743 -0.289616372,15.5011959 0.946563006,16.6390428 L13.2732381,27.9472747 C14.5094175,29.0851216 15.3944095,28.0526308 16.6376127,26.9218076 L31.2470054,13.4151432 L31.2048629,17.6645098 L16.6376127,31.0306994 C15.4014333,32.1685463 13.3926418,32.1685463 12.1564624,31.0306994 L0.946563006,20.7479345 C-0.289616372,21.8857814 -0.289616372,23.726003 0.946563006,24.8638499 L12.1564624,35.1466148 C13.3926418,36.2844617 15.4014333,36.2844617 16.6376127,35.1466148 L31.2118866,21.7734015 L31.2961716,13.3730007 L31.563074,13.1271696 L31.563074,0.0349060861 Z M26.7237126,7.38174494 C25.4875333,8.51959187 23.4787418,8.51959187 22.2425624,7.38174494 C21.006383,6.24389802 21.006383,4.40367643 22.2425624,3.26582947 C23.4787418,2.12798254 25.4875333,2.12798254 26.7237126,3.26582947 C27.959892,4.4036764 27.959892,6.24389798 26.7237126,7.38174494 Z" id="形状"></path>
        </g>
    </g>
</svg>