<?xml version="1.0" encoding="UTF-8"?>
<svg width="36px" height="36px" viewBox="0 0 36 36" version="1.1" xmlns="http://www.w3.org/2000/svg" xmlns:xlink="http://www.w3.org/1999/xlink">
    <!-- Generator: Sketch 52.3 (67297) - http://www.bohemiancoding.com/sketch -->
    <title>生产管理-高亮</title>
    <desc>Created with Sketch.</desc>
    <g id="Page-1" stroke="none" stroke-width="1" fill="none" fill-rule="evenodd">
        <g id="shengchan" fill="#EF5B6D" fill-rule="nonzero">
            <path d="M35.1,5.175 L31.275,0.3375 C31.1625,0.225 30.825,0 30.375,0 L5.625,0 C5.175,0 4.8375,0.225 4.725,0.3375 L0.9,5.175 C0.3375,5.7375 0,6.3 0,6.975 L0,32.4 C0,34.425 1.575,36 3.6,36 L32.4,36 C34.425,36 36,34.425 36,32.4 L36,6.975 C36,6.3 35.6625,5.7375 35.1,5.175 Z M26.1,20.7 L17.1,29.7 L17.1,24.3 L9.9,24.3 L9.9,17.1 L17.1,17.1 L17.1,11.7 L26.1,20.7 Z M30.6,5.4 L5.4,5.4 L6.3,3.6 L29.7,3.6 L30.6,5.4 Z" id="形状"></path>
        </g>
    </g>
</svg>