<?xml version="1.0" encoding="UTF-8"?>
<svg width="36px" height="36px" viewBox="0 0 36 36" version="1.1" xmlns="http://www.w3.org/2000/svg" xmlns:xlink="http://www.w3.org/1999/xlink">
    <!-- Generator: Sketch 52.3 (67297) - http://www.bohemiancoding.com/sketch -->
    <title>财务管理</title>
    <desc>Created with Sketch.</desc>
    <g id="Page-1" stroke="none" stroke-width="1" fill="none" fill-rule="evenodd">
        <g id="caiwuguanli-copy" transform="translate(0.000000, 3.000000)" fill="#29415A" fill-rule="nonzero">
            <path d="M36.0383779,4.00426421 C36.0383779,1.79307414 34.2453038,0 32.0341137,0 L4.01230491,0 C1.80111483,0 0.00804069119,1.79307414 0.00804069119,4.00426421 L0.00804069119,28.0218088 C0.00804069119,30.2329989 1.80111483,32.026073 4.01230491,32.026073 L32.0341137,32.026073 C34.2453038,32.026073 36.0383779,30.2329989 36.0383779,28.0218088 L36.0383779,22.0194328 L24.0296056,22.0194328 C20.7128205,22.0194328 18.0232093,19.3298216 18.0232093,16.0130365 C18.0232093,12.6962514 20.7128205,10.0066402 24.0296056,10.0066402 L36.0383779,10.0066402 L36.0383779,4.00426421 Z M26.0277174,14.0109044 C24.9221224,14.0109044 24.0255853,14.9074415 24.0255853,16.0130365 C24.0255853,17.1186315 24.9221224,18.0151686 26.0277174,18.0151686 L32.0341137,18.0151686 C33.1397088,18.0151686 34.0362458,17.1186315 34.0362458,16.0130365 C34.0362458,14.9074415 33.1397088,14.0109044 32.0341137,14.0109044 L26.0277174,14.0109044 Z" id="形状"></path>
        </g>
    </g>
</svg>