<?xml version="1.0" encoding="UTF-8"?>
<svg width="36px" height="36px" viewBox="0 0 36 36" version="1.1" xmlns="http://www.w3.org/2000/svg" xmlns:xlink="http://www.w3.org/1999/xlink">
    <!-- Generator: Sketch 52.3 (67297) - http://www.bohemiancoding.com/sketch -->
    <title>资产管理</title>
    <desc>Created with Sketch.</desc>
    <g id="Page-1" stroke="none" stroke-width="1" fill="none" fill-rule="evenodd">
        <g id="zichanguanli-copy" fill="#29415A" fill-rule="nonzero">
            <path d="M1.28304,10.500336 L3.853008,10.500336 C4.562712,10.500336 5.136048,9.995616 5.136048,9.378576 L5.136048,7.876224 C5.136048,7.255296 4.562712,6.750504 3.853008,6.750504 L1.28304,6.750504 C0.573336,6.750504 0,7.255224 0,7.872264 L0,9.374616 C0,9.995544 0.573336,10.500336 1.28304,10.500336 Z M1.28304,20.251512 L1.28304,20.24748 C0.573336,20.24748 0,19.74672 0,19.12572 L0,17.62344 C0,17.00244 0.573336,16.50168 1.28304,16.50168 L3.853008,16.50168 C4.562712,16.50168 5.136048,17.00244 5.136048,17.62344 L5.136048,19.12572 C5.136048,19.74672 4.562712,20.251512 3.853008,20.251512 L1.28304,20.251512 Z M32.892624,0 C34.59672,0 36,1.117728 36,2.483856 L36,33.516144 C36,34.882272 34.600752,36 32.888736,36 L6.346584,36 C4.6386,36 3.23928,34.882272 3.23928,33.516144 L3.23928,30.751848 L4.28976,30.751848 C5.235984,30.751848 6.005808,30.078792 6.005808,29.249496 L6.005808,26.998056 C6.005808,26.17272 5.235984,25.499664 4.28976,25.499664 L3.23928,25.499664 L3.23928,21.000672 L4.28976,21.000672 C5.235984,21.000672 6.005808,20.327616 6.005808,19.49832 L6.005808,17.25084 C6.005808,16.421544 5.235984,15.748488 4.28976,15.748488 L3.23928,15.748488 L3.23928,11.249496 L4.28976,11.249496 C5.235984,11.249496 6.005808,10.580472 6.005808,9.751176 L6.005808,7.499664 C6.005808,6.670368 5.235984,6.001344 4.28976,6.001344 L3.23928,6.001344 L3.23928,2.483856 C3.23928,1.117728 4.6386,0 6.350616,0 L32.892696,0 L32.892624,0 Z M21.361464,19.989864 L21.361464,18.748584 L24.795864,18.748584 C25.705224,18.748584 26.159832,18.3024 26.159832,17.410032 C26.159832,16.501392 25.705224,16.047072 24.795864,16.047072 L22.920336,16.047072 L25.843248,11.203776 C26.103024,10.749456 26.216712,10.380384 26.18424,10.096416 C26.151768,9.812448 25.932528,9.54072 25.526592,9.281088 C25.34796,9.167544 25.177392,9.074232 25.015104,9.001224 C24.852672,8.928216 24.690312,8.90388 24.527952,8.928216 C24.36552,8.952552 24.207192,9.033624 24.052968,9.171576 C23.898672,9.309456 23.73228,9.524448 23.553648,9.816552 C22.9546078,10.8357269 22.3537909,11.8538565 21.7512,12.870936 C21.148609,13.8880395 20.5477921,14.9061931 19.948752,15.925392 L16.246512,9.743472 C15.954192,9.256752 15.649704,8.989056 15.333048,8.940384 C15.016392,8.891712 14.671368,8.99712 14.297904,9.256752 C13.973112,9.483912 13.774176,9.759744 13.701096,10.084248 C13.628016,10.408752 13.7214,10.781928 13.981176,11.203848 C14.4759897,12.0113309 14.9712778,12.8185231 15.46704,13.625424 C15.9627783,14.4323489 16.4580423,15.2395651 16.952832,16.047072 L15.02856,16.047072 C14.151744,16.047072 13.713264,16.501392 13.713264,17.410032 C13.713264,18.3024 14.167944,18.748584 15.077304,18.748584 L18.46296,18.748584 L18.46296,19.989864 L15.02856,19.989864 C14.151744,19.989864 13.713264,20.444184 13.713264,21.352824 C13.713264,22.245192 14.167944,22.691376 15.077304,22.691376 L18.46296,22.691376 L18.46296,25.51464 C18.46296,26.147376 18.576648,26.569224 18.803952,26.780184 C19.031328,26.991144 19.404792,27.096552 19.924416,27.096552 C20.525184,27.096552 20.91492,26.991144 21.093552,26.780184 C21.272112,26.569224 21.361464,26.147376 21.361464,25.51464 L21.361464,22.691376 L24.795864,22.691376 C25.705224,22.691376 26.159832,22.245192 26.159832,21.352824 C26.159832,20.444184 25.705224,19.989864 24.795864,19.989864 L21.361464,19.989864 Z M3.853008,29.998656 L1.28304,29.998656 C0.573336,29.998656 0,29.497896 0,28.876896 L0,27.374616 C0,26.753616 0.573336,26.252856 1.28304,26.252856 L3.853008,26.252856 C4.562712,26.252856 5.136048,26.753616 5.136048,27.374616 L5.136048,28.876896 C5.136048,29.497896 4.562712,29.998656 3.853008,29.998656 Z" id="形状"></path>
        </g>
    </g>
</svg>