<?xml version="1.0" encoding="UTF-8"?>
<svg width="36px" height="36px" viewBox="0 0 36 36" version="1.1" xmlns="http://www.w3.org/2000/svg" xmlns:xlink="http://www.w3.org/1999/xlink">
    <!-- Generator: Sketch 52.3 (67297) - http://www.bohemiancoding.com/sketch -->
    <title>绩效管理</title>
    <desc>Created with Sketch.</desc>
    <g id="Page-1" stroke="none" stroke-width="1" fill="none" fill-rule="evenodd">
        <g id="jixiao-copy" fill="#29415A" fill-rule="nonzero">
            <path d="M33.8793148,33.7191389 L33.8793148,14.5733764 C33.8763181,12.9911315 32.6004834,11.7078051 31.0257301,11.7063067 L27.571312,11.7063067 C25.9965588,11.7078051 24.720724,12.9911315 24.7192256,14.5733764 L24.7192256,33.7191389 L22.5960807,33.7191389 L22.5960807,18.8706097 C22.5977474,17.3021334 21.3304359,16.0277869 19.7619745,16.0207709 L16.270847,16.0207709 C14.7023856,16.0277869 13.4350741,17.3021334 13.4367408,18.8706097 L13.4367408,33.7191389 L11.3150942,33.7191389 L11.3150942,24.4009751 C11.3120975,22.8179811 10.0362627,21.536153 8.46150955,21.5331563 L5.00784053,21.5331563 C3.42915604,21.5397608 2.15333989,22.8222777 2.15500506,24.4009751 L2.15500506,33.7191389 L1.16685116,33.7191389 C0.542793394,33.7191389 0.037104315,34.2270755 0.037104358,34.8548791 C0.037104358,35.4811844 0.542793437,35.9906193 1.16685116,35.9906193 L34.8674687,35.9906193 C35.4922756,35.9906193 35.9972155,35.4811844 35.9972155,34.8548791 C35.99841,34.5543357 35.8799588,34.2656704 35.6680038,34.052591 C35.4560487,33.8395115 35.1680142,33.7195346 34.8674687,33.7191389 L33.8793148,33.7191389 Z M1.58263995,20.6686153 C1.8321132,20.6686153 2.07484398,20.5854575 2.27262458,20.4318779 L13.566347,11.6688483 L22.5825957,11.6688483 L32.2978191,4.10973328 L32.2978191,7.24725296 C32.2978191,7.87430741 32.8042573,8.38299312 33.4275659,8.38299312 C34.0508744,8.38299312 34.5573127,7.87430737 34.5573127,7.24725296 L34.5573127,0.0297589833 L27.3757788,0.0297589833 C26.7524702,0.0297589833 26.246032,0.53769557 26.246032,1.16549914 C26.246032,1.79255358 26.7524703,2.3012393 27.3757788,2.30123934 L30.9313348,2.30123934 L21.8094533,9.39811708 L12.7947029,9.39811708 L0.891906143,18.6331232 C0.397196791,19.0177011 0.305829915,19.7295595 0.687383012,20.2266056 C0.900896177,20.5045473 1.23202886,20.6686153 1.58263995,20.6686153 Z" id="形状"></path>
        </g>
    </g>
</svg>