<?xml version="1.0" encoding="UTF-8"?>
<svg width="36px" height="36px" viewBox="0 0 36 36" version="1.1" xmlns="http://www.w3.org/2000/svg" xmlns:xlink="http://www.w3.org/1999/xlink">
    <!-- Generator: Sketch 52.3 (67297) - http://www.bohemiancoding.com/sketch -->
    <title>党建管理</title>
    <desc>Created with Sketch.</desc>
    <g id="Page-1" stroke="none" stroke-width="1" fill="none" fill-rule="evenodd">
        <g id="dangjian-copy" fill="#29415A">
            <path d="M18.0004342,0.0315497487 C27.2627457,3.51417889 32.8942312,14.6289528 28.0778291,23.6319196 L16.3146935,11.8132101 L20.7976523,7.31172663 L17.9819095,4.51450854 C16.4258412,6.03352764 13.980591,6.34844623 12.3133749,5.6815598 L3.40303116,14.6289528 L8.46025327,19.6676503 L11.8317347,16.3146935 L23.5763457,28.1148784 C17.8337126,31.2825889 9.8496,30.2822593 3.97729447,24.1691337 L1.12450251,27.003401 C1.97663518,28.1889769 2.69909548,29.263405 3.58827739,30.1525869 C3.51417889,30.2452101 3.27335879,30.4489809 3.25483417,30.4489809 C3.10663719,30.4304563 2.92139095,30.3748824 2.77319397,30.3748824 C1.25417487,30.3748824 0.0315497487,31.6901307 0.0315497487,33.2091497 C0.0315497487,34.7281688 1.2726995,35.9693186 2.79171859,35.9693186 C4.31073769,35.9693186 5.60746131,34.7281688 5.60746131,33.2091497 C5.60746131,33.0239035 5.57041206,32.8757065 5.53336281,32.7089849 L5.97795377,32.2829186 C12.7394412,36.8399759 20.1492905,37.4142392 28.133403,32.6348864 L31.4307859,35.950794 L35.9322693,31.5048844 L32.6163618,28.1148784 C42.1194935,13.7768201 29.4301266,-0.301893467 18.0004342,0.0315497487 Z" id="路径"></path>
        </g>
    </g>
</svg>