<?xml version="1.0" encoding="UTF-8"?>
<svg width="36px" height="36px" viewBox="0 0 36 36" version="1.1" xmlns="http://www.w3.org/2000/svg" xmlns:xlink="http://www.w3.org/1999/xlink">
    <!-- Generator: Sketch 52.3 (67297) - http://www.bohemiancoding.com/sketch -->
    <title>人力资源管理</title>
    <desc>Created with Sketch.</desc>
    <g id="Page-1" stroke="none" stroke-width="1" fill="none" fill-rule="evenodd">
        <g id="renliziyuan-copy" fill="#29415A" fill-rule="nonzero">
            <path d="M32.6730721,26.6381795 C30.4247788,24.8905183 23.9438685,21.9823009 23.9438685,21.9823009 L19.7340076,29.7193426 L19.1150442,27.8761062 L20.2664981,25.5504425 L17.9635904,23.2247788 L15.6561315,25.5504425 L16.8075853,27.8761062 L16.0657396,29.7603034 L11.9742099,21.9823009 C11.9742099,21.9823009 5.49329962,24.8905183 3.24500632,26.6381795 C0.996713021,28.3858407 0.00455120101,33.6970954 0.00455120101,33.6970954 L35.977244,33.6970954 C35.977244,33.7016435 35.3173198,28.6998736 32.6730721,26.6381795 Z M18.1729456,21.3178255 C23.4523388,21.3087231 26.9749684,14.28622 26.9749684,10.5041719 C26.9749684,6.72212389 26.9613148,0 18.1729456,0 C9.38912769,0 9.37547408,6.72212389 9.37547408,10.5041719 C9.37547408,14.28622 12.8935525,21.3269279 18.1729456,21.3178255 Z" id="形状"></path>
        </g>
    </g>
</svg>