<?xml version="1.0" encoding="utf-8"?>
<!-- Generator: Adobe Illustrator 22.0.1, SVG Export Plug-In . SVG Version: 6.00 Build 0)  -->
<svg version="1.1" id="图层_1" xmlns="http://www.w3.org/2000/svg" xmlns:xlink="http://www.w3.org/1999/xlink" x="0px" y="0px"
	 viewBox="0 0 22 32" style="enable-background:new 0 0 22 32;" xml:space="preserve">
<style type="text/css">
	.st0{fill:url(#SVGID_1_);}
	.st1{fill:url(#SVGID_2_);}
	.st2{fill:url(#SVGID_3_);}
	.st3{fill:url(#SVGID_4_);}
	.st4{fill:url(#SVGID_5_);}
	.st5{fill:url(#SVGID_6_);}
	.st6{fill:#0062AC;}
</style>
<g>
	<linearGradient id="SVGID_1_" gradientUnits="userSpaceOnUse" x1="16.0589" y1="19.8279" x2="5.9927" y2="19.8279">
		<stop  offset="0" style="stop-color:#005FA9"/>
		<stop  offset="0.5769" style="stop-color:#81CFF4"/>
		<stop  offset="1" style="stop-color:#D1ECFB"/>
	</linearGradient>
	<path class="st0" d="M5.9,12c0,2.5,6.5,2.7,9.2,6.1c4.9,6.1-9.2,7.4-9.2,9.5C5.9,27.6,5.9,15.4,5.9,12z"/>
	<linearGradient id="SVGID_2_" gradientUnits="userSpaceOnUse" x1="1.0054" y1="10.6213" x2="15.6645" y2="10.6213">
		<stop  offset="0" style="stop-color:#F7F8DA"/>
		<stop  offset="0.5549" style="stop-color:#B4D45D"/>
		<stop  offset="0.6581" style="stop-color:#A9CE55"/>
		<stop  offset="0.8341" style="stop-color:#89C040"/>
		<stop  offset="1" style="stop-color:#5FAF2C"/>
	</linearGradient>
	<path class="st1" d="M16.1,20.7c0-3.9-7.2-5.1-13.1-8.6c-5.5-3.3-2-13,13.1-11.4C16.1,0.7,16.1,15.5,16.1,20.7z"/>
	<linearGradient id="SVGID_3_" gradientUnits="userSpaceOnUse" x1="9.6204" y1="21.6419" x2="23.5681" y2="21.6419">
		<stop  offset="0" style="stop-color:#005FA9"/>
		<stop  offset="0.5769" style="stop-color:#81CFF4"/>
		<stop  offset="1" style="stop-color:#D1ECFB"/>
	</linearGradient>
	<path class="st2" d="M9.8,11.8v19.7c0-2.5,11.6-4.4,11.6-12.2C21.4,13.9,16.8,11.8,9.8,11.8z"/>
</g>
</svg>
